<svg id="Layer_1" data-name="Layer 1" xmlns="http://www.w3.org/2000/svg" xmlns:xlink="http://www.w3.org/1999/xlink" viewBox="0 0 120 120"><defs><style>.cls-1{fill:#424242;}.cls-2{fill:url(#linear-gradient);}</style><linearGradient id="linear-gradient" x1="90.72" y1="2.7" x2="29.28" y2="64.14" gradientUnits="userSpaceOnUse"><stop offset="0" stop-color="#004c91"/><stop offset="0.15" stop-color="#059"/><stop offset="0.39" stop-color="#006eb0"/><stop offset="0.7" stop-color="#0097d5"/><stop offset="1" stop-color="#00c5ff"/></linearGradient></defs><title>Artboard 1</title><polygon class="cls-1" points="4.56 104.17 0.75 104.17 0.75 110.5 119.25 110.5 119.25 104.17 115.44 104.17 4.56 104.17"/><polygon class="cls-2" points="60 9.3 0.75 31.23 0.75 35.6 4.56 35.6 115.44 35.6 119.25 35.6 119.25 31.23 60 9.3"/><polygon class="cls-1" points="107.5 43.06 115.44 43.06 115.44 37.5 4.56 37.5 4.56 43.06 12.5 43.06 107.5 43.06"/><rect class="cls-1" x="13.7" y="46.73" width="8.65" height="46.32"/><polygon class="cls-1" points="34.69 46.73 34.69 59.55 39.01 54.76 43.34 59.55 43.34 46.73 34.69 46.73"/><rect class="cls-1" x="66.17" y="46.73" width="8.65" height="46.32"/><rect class="cls-1" x="81.91" y="46.73" width="8.65" height="46.32"/><rect class="cls-1" x="97.65" y="46.73" width="8.65" height="46.32"/><polygon class="cls-1" points="107.5 102.28 115.44 102.28 115.44 96.72 4.56 96.72 4.56 102.28 12.5 102.28 107.5 102.28"/></svg>