<?xml version="1.0" encoding="utf-8"?>
<!-- Generator: Adobe Illustrator 21.0.0, SVG Export Plug-In . SVG Version: 6.00 Build 0)  -->
<svg version="1.1" id="Layer_1" xmlns="http://www.w3.org/2000/svg" xmlns:xlink="http://www.w3.org/1999/xlink" x="0px" y="0px"
	 viewBox="0 0 130 70" style="enable-background:new 0 0 130 70;" xml:space="preserve">
<style type="text/css">
	.st0{fill:#0069AB;}
	.st1{font-family:'Lato-Black';}
	.st2{font-size:13.0841px;}
	.st3{letter-spacing:2;}
	.st4{font-family:'Lato-Bold';}
	.st5{font-size:4.0259px;}
	.st6{letter-spacing:1;}
	.st7{fill:#009AD7;}
	.st8{fill:url(#SVGID_1_);}
	.st9{fill:url(#SVGID_2_);}
	.st10{fill:url(#SVGID_3_);}
	.st11{fill:url(#SVGID_4_);}
	.st12{fill:url(#SVGID_5_);}
	.st13{fill:url(#SVGID_6_);}
	.st14{fill:url(#SVGID_7_);}
	.st15{fill:url(#SVGID_8_);}
	.st16{fill:#01BBF6;}
	.st17{fill:url(#SVGID_9_);}
</style>
<g>
	<g>
		<g>
			<text transform="matrix(1 0 0 1 63.2425 22.163)" class="st0 st1 st2 st3">SWISS</text>
		</g>
		<g>
			<text transform="matrix(1 0 0 1 16.5508 67.1598)" class="st0 st4 st5 st6">EDUCATION FOR YOUR FUTURE</text>
		</g>
		<g>
			<text transform="matrix(1 0 0 1 63.2425 38.12)" class="st7 st1 st2 st3">STUDY</text>
		</g>
		<g>
			<text transform="matrix(1 0 0 1 62.8343 53.7044)" class="st0 st1 st2 st3">PORTAL</text>
		</g>
	</g>
	<g>
		<g>
			<g>
				
					<linearGradient id="SVGID_1_" gradientUnits="userSpaceOnUse" x1="-98.6874" y1="192.5139" x2="-59.3255" y2="192.5139" gradientTransform="matrix(0.7071 0.7071 -0.7071 0.7071 219.2195 -52.5218)">
					<stop  offset="0" style="stop-color:#004C91"/>
					<stop  offset="0.207" style="stop-color:#0073B4"/>
					<stop  offset="0.4363" style="stop-color:#0096D4"/>
					<stop  offset="0.6519" style="stop-color:#00B0EC"/>
					<stop  offset="0.846" style="stop-color:#00C0FA"/>
					<stop  offset="1" style="stop-color:#00C5FF"/>
				</linearGradient>
				<path class="st8" d="M20.9,53.7c-5,0-10.1-1.9-13.9-5.8c-7.7-7.7-7.7-20.2,0-27.8L19.6,7.5c7.7-7.7,20.2-7.7,27.8,0
					c7.7,7.7,7.7,20.2,0,27.8L34.9,47.9C31,51.8,26,53.7,20.9,53.7z M33.5,6c-3.9,0-7.9,1.5-10.9,4.5L10,23.1c-6,6-6,15.8,0,21.8
					c2.9,2.9,6.8,4.5,10.9,4.5c4.1,0,8-1.6,10.9-4.5l12.6-12.6c6-6,6-15.8,0-21.8C41.4,7.6,37.5,6,33.5,6z"/>
			</g>
			<g>
				<linearGradient id="SVGID_2_" gradientUnits="userSpaceOnUse" x1="1.2625" y1="27.74" x2="53.1928" y2="27.74">
					<stop  offset="0" style="stop-color:#004C91"/>
					<stop  offset="0.207" style="stop-color:#0073B4"/>
					<stop  offset="0.4363" style="stop-color:#0096D4"/>
					<stop  offset="0.6519" style="stop-color:#00B0EC"/>
					<stop  offset="0.846" style="stop-color:#00C0FA"/>
					<stop  offset="1" style="stop-color:#00C5FF"/>
				</linearGradient>
				<path class="st9" d="M47.4,7.5c-6.2-6.2-15.6-7.4-23-3.6c1.4,0.8,2.7,1.8,3.8,3C30,6.4,31.7,6,33.5,6c3.9,0,7.9,1.5,10.9,4.5
					c6,6,6,15.8,0,21.8L31.8,44.9c-2.9,2.9-6.8,4.5-10.9,4.5c-4.1,0-8-1.6-10.9-4.5c-3.8-3.8-5.2-9.2-4.2-14.1
					c-1.2-1.7-2-3.8-2.4-5.9C-0.4,32.3,0.8,41.7,7,47.9c3.8,3.8,8.9,5.8,13.9,5.8c5,0,10.1-1.9,13.9-5.8l12.6-12.6
					C55.1,27.7,55.1,15.2,47.4,7.5z"/>
			</g>
			<g>
				
					<linearGradient id="SVGID_3_" gradientUnits="userSpaceOnUse" x1="107.2939" y1="490.441" x2="146.6559" y2="490.441" gradientTransform="matrix(-0.7071 0.7071 -0.7071 -0.7071 463.8023 284.7462)">
					<stop  offset="0" style="stop-color:#004C91"/>
					<stop  offset="0.207" style="stop-color:#0073B4"/>
					<stop  offset="0.4363" style="stop-color:#0096D4"/>
					<stop  offset="0.6519" style="stop-color:#00B0EC"/>
					<stop  offset="0.846" style="stop-color:#00C0FA"/>
					<stop  offset="1" style="stop-color:#00C5FF"/>
				</linearGradient>
				<path class="st10" d="M33.5,53.7c-5.3,0-10.2-2-13.9-5.8L7,35.4c-7.7-7.7-7.7-20.2,0-27.8c7.7-7.7,20.2-7.7,27.8,0l12.6,12.6
					c7.7,7.7,7.7,20.2,0,27.8C43.7,51.7,38.8,53.7,33.5,53.7z M20.9,6c-4.1,0-8,1.6-10.9,4.5c-6,6-6,15.8,0,21.8l12.6,12.6
					c2.9,2.9,6.8,4.5,10.9,4.5s8-1.6,10.9-4.5c6-6,6-15.8,0-21.8L31.8,10.6C28.9,7.6,25,6,20.9,6z"/>
			</g>
			<g>
				<linearGradient id="SVGID_4_" gradientUnits="userSpaceOnUse" x1="32.3029" y1="49.1588" x2="41.721" y2="56.7321">
					<stop  offset="0" style="stop-color:#004C91"/>
					<stop  offset="0.207" style="stop-color:#0073B4;stop-opacity:0.793"/>
					<stop  offset="0.4363" style="stop-color:#0096D4;stop-opacity:0.5637"/>
					<stop  offset="0.6519" style="stop-color:#00B0EC;stop-opacity:0.3481"/>
					<stop  offset="0.846" style="stop-color:#00C0FA;stop-opacity:0.154"/>
					<stop  offset="1" style="stop-color:#00C5FF;stop-opacity:0"/>
				</linearGradient>
				<path class="st11" d="M41.2,47.8c-0.1-0.1-0.2-0.2-0.3-0.3c-2.2,1.2-4.8,1.9-7.4,1.9c-1.4,0-2.7-0.2-4.1-0.5c-1.5,1-3,2-4.5,2.9
					c2.6,1.3,5.5,1.9,8.6,1.9c3.5,0,6.9-0.9,9.8-2.6C42.9,49.9,42.3,48.8,41.2,47.8z"/>
			</g>
			<g>
				<linearGradient id="SVGID_5_" gradientUnits="userSpaceOnUse" x1="27.963" y1="50.8129" x2="16.163" y2="41.6352">
					<stop  offset="0" style="stop-color:#004C91"/>
					<stop  offset="0.207" style="stop-color:#0073B4"/>
					<stop  offset="0.4363" style="stop-color:#0096D4"/>
					<stop  offset="0.6519" style="stop-color:#00B0EC"/>
					<stop  offset="0.846" style="stop-color:#00C0FA"/>
					<stop  offset="1" style="stop-color:#00C5FF"/>
				</linearGradient>
				<path class="st12" d="M29,48.8c-2.4-0.7-4.6-2-6.4-3.8l-9.4-9.4c-1.2,0.9-2.2,1.8-3.1,3l9.5,9.5c1.8,1.8,4,3.3,6.3,4.2
					C27.1,51.2,28.2,50,29,48.8z"/>
			</g>
		</g>
		<linearGradient id="SVGID_6_" gradientUnits="userSpaceOnUse" x1="40.739" y1="25.272" x2="39.7662" y2="0.7354">
			<stop  offset="0" style="stop-color:#004C91"/>
			<stop  offset="0.207" style="stop-color:#0073B4;stop-opacity:0.793"/>
			<stop  offset="0.4363" style="stop-color:#0096D4;stop-opacity:0.5637"/>
			<stop  offset="0.6519" style="stop-color:#00B0EC;stop-opacity:0.3481"/>
			<stop  offset="0.846" style="stop-color:#00C0FA;stop-opacity:0.154"/>
			<stop  offset="1" style="stop-color:#00C5FF;stop-opacity:0"/>
		</linearGradient>
		<path class="st13" d="M33.2,6.1c0.1,0,0.2,0,0.3,0c3.9,0,7.9,1.5,10.9,4.5c3.1,3.1,4.6,7.2,4.5,11.2c1.5,1.8,2.5,3.8,3.2,6
			c2.3-6.9,0.7-14.8-4.7-20.2c-5.5-5.5-13.3-7-20.2-4.7C29.4,3.5,31.4,4.6,33.2,6.1z"/>
		<linearGradient id="SVGID_7_" gradientUnits="userSpaceOnUse" x1="-0.6459" y1="40.7194" x2="50.1507" y2="40.7194">
			<stop  offset="0" style="stop-color:#004C91"/>
			<stop  offset="6.929814e-02" style="stop-color:#0061A4"/>
			<stop  offset="0.2275" style="stop-color:#008CCB"/>
			<stop  offset="0.3699" style="stop-color:#00ABE8"/>
			<stop  offset="0.4904" style="stop-color:#00BEF9"/>
			<stop  offset="0.5742" style="stop-color:#00C5FF"/>
			<stop  offset="1" style="stop-color:#006CAE"/>
		</linearGradient>
		<path class="st14" d="M47.6,27.7c-0.7,1.7-1.8,3.2-3.2,4.6L31.8,44.9c-2.9,2.9-6.8,4.5-10.9,4.5c-4.1,0-8-1.6-10.9-4.5
			C7,41.8,5.5,37.8,5.5,33.7c-1.5-1.8-2.5-3.9-3.3-6C0,34.6,1.6,42.5,7,47.9c3.8,3.8,8.9,5.8,13.9,5.8c5,0,10.1-1.9,13.9-5.8
			l12.6-12.6c0.5-0.5,1-1.1,1.5-1.7C48.9,31.7,48.4,29.6,47.6,27.7z"/>
		<linearGradient id="SVGID_8_" gradientUnits="userSpaceOnUse" x1="48.0844" y1="31.0603" x2="37.6863" y2="41.0479">
			<stop  offset="0" style="stop-color:#004C91"/>
			<stop  offset="0.207" style="stop-color:#0073B4;stop-opacity:0.793"/>
			<stop  offset="0.4363" style="stop-color:#0096D4;stop-opacity:0.5637"/>
			<stop  offset="0.6519" style="stop-color:#00B0EC;stop-opacity:0.3481"/>
			<stop  offset="0.846" style="stop-color:#00C0FA;stop-opacity:0.154"/>
			<stop  offset="1" style="stop-color:#00C5FF;stop-opacity:0"/>
		</linearGradient>
		<path class="st15" d="M48.9,33.7c0-2-0.5-4.1-1.3-6c-0.7,1.7-1.8,3.2-3.2,4.6l-2.6,2.6c0.6,1.3,1.4,2.6,2.3,3.7l3.3-3.3
			C48,34.8,48.5,34.3,48.9,33.7z"/>
		<g>
			<path class="st16" d="M22.6,10.6c3-3,6.9-4.5,10.9-4.5c2.1,0,4.2,0.4,6.2,1.3c-0.2-1.7-0.8-3.3-1.3-5c-6.5-1.6-13.7,0.1-18.7,5.2
				l-3.1,3.1c1.1,0.9,2.3,1.7,3.6,2.5L22.6,10.6z"/>
		</g>
		<g>
			<linearGradient id="SVGID_9_" gradientUnits="userSpaceOnUse" x1="13.0199" y1="21.3358" x2="20.0531" y2="11.6288">
				<stop  offset="0" style="stop-color:#004C91;stop-opacity:0"/>
				<stop  offset="0.1647" style="stop-color:#0069AB;stop-opacity:0.1647"/>
				<stop  offset="0.4064" style="stop-color:#018CCB;stop-opacity:0.4064"/>
				<stop  offset="0.6334" style="stop-color:#01A6E3;stop-opacity:0.6334"/>
				<stop  offset="0.8378" style="stop-color:#01B6F1;stop-opacity:0.8378"/>
				<stop  offset="1" style="stop-color:#01BBF6"/>
			</linearGradient>
			<path class="st17" d="M12.4,20.8l10.2-10.2c2.1-2.1,4.7-3.5,7.4-4.1c-0.2-0.5-0.3-0.9-0.6-1.4c-0.5-0.8-1.1-1.7-1.8-2.4
				c-2.9,0.9-5.7,2.5-8,4.9L9.5,17.6C10.3,18.9,11.3,20,12.4,20.8z"/>
		</g>
	</g>
</g>
</svg>
