<?xml version="1.0" encoding="utf-8"?>
<!-- Generator: Adobe Illustrator 21.0.0, SVG Export Plug-In . SVG Version: 6.00 Build 0)  -->
<svg version="1.1" id="Layer_1" xmlns="http://www.w3.org/2000/svg" xmlns:xlink="http://www.w3.org/1999/xlink" x="0px" y="0px"
	 viewBox="0 0 130 60" style="enable-background:new 0 0 130 60;" xml:space="preserve">
<style type="text/css">
	.st0{fill:#0069AB;}
	.st1{font-family:'Lato-Black';}
	.st2{font-size:13.0841px;}
	.st3{letter-spacing:2;}
	.st4{fill:#009AD7;}
	.st5{fill:url(#SVGID_1_);}
	.st6{fill:url(#SVGID_2_);}
	.st7{fill:url(#SVGID_3_);}
	.st8{fill:url(#SVGID_4_);}
	.st9{fill:url(#SVGID_5_);}
	.st10{fill:url(#SVGID_6_);}
	.st11{fill:url(#SVGID_7_);}
	.st12{fill:url(#SVGID_8_);}
	.st13{fill:#01BBF6;}
	.st14{fill:url(#SVGID_9_);}
</style>
<g>
	<g>
		<g>
			<text transform="matrix(1 0 0 1 63.1153 22.6979)" class="st0 st1 st2 st3">SWISS</text>
		</g>
		<g>
			<text transform="matrix(1 0 0 1 63.1153 38.655)" class="st4 st1 st2 st3">STUDY</text>
		</g>
		<g>
			<text transform="matrix(1 0 0 1 62.7071 54.2393)" class="st0 st1 st2 st3">PORTAL</text>
		</g>
	</g>
	<g>
		<g>
			<g>
				
					<linearGradient id="SVGID_1_" gradientUnits="userSpaceOnUse" x1="-94.8635" y1="191.5176" x2="-55.5016" y2="191.5176" gradientTransform="matrix(0.7071 0.7071 -0.7071 0.7071 215.684 -53.9863)">
					<stop  offset="0" style="stop-color:#004C91"/>
					<stop  offset="0.207" style="stop-color:#0073B4"/>
					<stop  offset="0.4363" style="stop-color:#0096D4"/>
					<stop  offset="0.6519" style="stop-color:#00B0EC"/>
					<stop  offset="0.846" style="stop-color:#00C0FA"/>
					<stop  offset="1" style="stop-color:#00C5FF"/>
				</linearGradient>
				<path class="st5" d="M20.8,54.2c-5,0-10.1-1.9-13.9-5.8c-7.7-7.7-7.7-20.2,0-27.8L19.5,8.1c7.7-7.7,20.2-7.7,27.8,0
					c7.7,7.7,7.7,20.2,0,27.8L34.7,48.5C30.9,52.3,25.8,54.2,20.8,54.2z M33.4,6.6c-3.9,0-7.9,1.5-10.9,4.5L9.9,23.7
					c-6,6-6,15.8,0,21.8c2.9,2.9,6.8,4.5,10.9,4.5c4.1,0,8-1.6,10.9-4.5l12.6-12.6c6-6,6-15.8,0-21.8C41.3,8.1,37.3,6.6,33.4,6.6z"
					/>
			</g>
			<g>
				<linearGradient id="SVGID_2_" gradientUnits="userSpaceOnUse" x1="1.1353" y1="28.2749" x2="53.0657" y2="28.2749">
					<stop  offset="0" style="stop-color:#004C91"/>
					<stop  offset="0.207" style="stop-color:#0073B4"/>
					<stop  offset="0.4363" style="stop-color:#0096D4"/>
					<stop  offset="0.6519" style="stop-color:#00B0EC"/>
					<stop  offset="0.846" style="stop-color:#00C0FA"/>
					<stop  offset="1" style="stop-color:#00C5FF"/>
				</linearGradient>
				<path class="st6" d="M47.3,8.1c-6.2-6.2-15.6-7.4-23-3.6c1.4,0.8,2.7,1.8,3.8,3c1.7-0.6,3.5-0.9,5.3-0.9c3.9,0,7.9,1.5,10.9,4.5
					c6,6,6,15.8,0,21.8L31.7,45.5c-2.9,2.9-6.8,4.5-10.9,4.5c-4.1,0-8-1.6-10.9-4.5c-3.8-3.8-5.2-9.2-4.2-14.1
					c-1.2-1.7-2-3.8-2.4-5.9c-3.9,7.4-2.7,16.9,3.5,23.1c3.8,3.8,8.9,5.8,13.9,5.8c5,0,10.1-1.9,13.9-5.8l12.6-12.6
					C55,28.2,55,15.7,47.3,8.1z"/>
			</g>
			<g>
				
					<linearGradient id="SVGID_3_" gradientUnits="userSpaceOnUse" x1="111.2977" y1="481.6171" x2="150.6597" y2="481.6171" gradientTransform="matrix(-0.7071 0.7071 -0.7071 -0.7071 460.2668 276.2107)">
					<stop  offset="0" style="stop-color:#004C91"/>
					<stop  offset="0.207" style="stop-color:#0073B4"/>
					<stop  offset="0.4363" style="stop-color:#0096D4"/>
					<stop  offset="0.6519" style="stop-color:#00B0EC"/>
					<stop  offset="0.846" style="stop-color:#00C0FA"/>
					<stop  offset="1" style="stop-color:#00C5FF"/>
				</linearGradient>
				<path class="st7" d="M33.4,54.2c-5.3,0-10.2-2-13.9-5.8L6.9,35.9c-7.7-7.7-7.7-20.2,0-27.8c7.7-7.7,20.2-7.7,27.8,0l12.6,12.6
					c7.7,7.7,7.7,20.2,0,27.8C43.6,52.2,38.7,54.2,33.4,54.2z M20.8,6.6c-4.1,0-8,1.6-10.9,4.5c-6,6-6,15.8,0,21.8l12.6,12.6
					c2.9,2.9,6.8,4.5,10.9,4.5s8-1.6,10.9-4.5c6-6,6-15.8,0-21.8L31.7,11.1C28.8,8.2,24.9,6.6,20.8,6.6z"/>
			</g>
			<g>
				<linearGradient id="SVGID_4_" gradientUnits="userSpaceOnUse" x1="32.1757" y1="49.6937" x2="41.5938" y2="57.267">
					<stop  offset="0" style="stop-color:#004C91"/>
					<stop  offset="0.207" style="stop-color:#0073B4;stop-opacity:0.793"/>
					<stop  offset="0.4363" style="stop-color:#0096D4;stop-opacity:0.5637"/>
					<stop  offset="0.6519" style="stop-color:#00B0EC;stop-opacity:0.3481"/>
					<stop  offset="0.846" style="stop-color:#00C0FA;stop-opacity:0.154"/>
					<stop  offset="1" style="stop-color:#00C5FF;stop-opacity:0"/>
				</linearGradient>
				<path class="st8" d="M41.1,48.4c-0.1-0.1-0.2-0.2-0.3-0.3C38.5,49.3,36,50,33.4,50c-1.4,0-2.7-0.2-4.1-0.5c-1.5,1-3,2-4.5,2.9
					c2.6,1.3,5.5,1.9,8.6,1.9c3.5,0,6.9-0.9,9.8-2.6C42.8,50.4,42.1,49.3,41.1,48.4z"/>
			</g>
			<g>
				<linearGradient id="SVGID_5_" gradientUnits="userSpaceOnUse" x1="27.8358" y1="51.3478" x2="16.0359" y2="42.1701">
					<stop  offset="0" style="stop-color:#004C91"/>
					<stop  offset="0.207" style="stop-color:#0073B4"/>
					<stop  offset="0.4363" style="stop-color:#0096D4"/>
					<stop  offset="0.6519" style="stop-color:#00B0EC"/>
					<stop  offset="0.846" style="stop-color:#00C0FA"/>
					<stop  offset="1" style="stop-color:#00C5FF"/>
				</linearGradient>
				<path class="st9" d="M28.9,49.3c-2.4-0.7-4.6-2-6.4-3.8L13.1,36c-1.2,0.9-2.2,1.8-3.1,3l9.5,9.5c1.8,1.8,4,3.3,6.3,4.2
					C27,51.7,28.1,50.6,28.9,49.3z"/>
			</g>
		</g>
		<linearGradient id="SVGID_6_" gradientUnits="userSpaceOnUse" x1="40.6118" y1="25.8069" x2="39.639" y2="1.2703">
			<stop  offset="0" style="stop-color:#004C91"/>
			<stop  offset="0.207" style="stop-color:#0073B4;stop-opacity:0.793"/>
			<stop  offset="0.4363" style="stop-color:#0096D4;stop-opacity:0.5637"/>
			<stop  offset="0.6519" style="stop-color:#00B0EC;stop-opacity:0.3481"/>
			<stop  offset="0.846" style="stop-color:#00C0FA;stop-opacity:0.154"/>
			<stop  offset="1" style="stop-color:#00C5FF;stop-opacity:0"/>
		</linearGradient>
		<path class="st10" d="M33.1,6.6c0.1,0,0.2,0,0.3,0c3.9,0,7.9,1.5,10.9,4.5c3.1,3.1,4.6,7.2,4.5,11.2c1.5,1.8,2.5,3.8,3.2,6
			c2.3-6.9,0.7-14.8-4.7-20.2C41.9,2.6,34,1,27.1,3.3C29.2,4.1,31.3,5.1,33.1,6.6z"/>
		<linearGradient id="SVGID_7_" gradientUnits="userSpaceOnUse" x1="-0.7731" y1="41.2543" x2="50.0236" y2="41.2543">
			<stop  offset="0" style="stop-color:#004C91"/>
			<stop  offset="6.929814e-02" style="stop-color:#0061A4"/>
			<stop  offset="0.2275" style="stop-color:#008CCB"/>
			<stop  offset="0.3699" style="stop-color:#00ABE8"/>
			<stop  offset="0.4904" style="stop-color:#00BEF9"/>
			<stop  offset="0.5742" style="stop-color:#00C5FF"/>
			<stop  offset="1" style="stop-color:#006CAE"/>
		</linearGradient>
		<path class="st11" d="M47.4,28.3c-0.7,1.7-1.8,3.2-3.2,4.6L31.7,45.5c-2.9,2.9-6.8,4.5-10.9,4.5c-4.1,0-8-1.6-10.9-4.5
			c-3.1-3.1-4.6-7.2-4.5-11.2c-1.5-1.8-2.5-3.9-3.3-6C-0.1,35.1,1.4,43,6.9,48.5c3.8,3.8,8.9,5.8,13.9,5.8c5,0,10.1-1.9,13.9-5.8
			l12.6-12.6c0.5-0.5,1-1.1,1.5-1.7C48.7,32.2,48.3,30.2,47.4,28.3z"/>
		<linearGradient id="SVGID_8_" gradientUnits="userSpaceOnUse" x1="47.9572" y1="31.5952" x2="37.5591" y2="41.5828">
			<stop  offset="0" style="stop-color:#004C91"/>
			<stop  offset="0.207" style="stop-color:#0073B4;stop-opacity:0.793"/>
			<stop  offset="0.4363" style="stop-color:#0096D4;stop-opacity:0.5637"/>
			<stop  offset="0.6519" style="stop-color:#00B0EC;stop-opacity:0.3481"/>
			<stop  offset="0.846" style="stop-color:#00C0FA;stop-opacity:0.154"/>
			<stop  offset="1" style="stop-color:#00C5FF;stop-opacity:0"/>
		</linearGradient>
		<path class="st12" d="M48.8,34.2c0-2-0.5-4.1-1.3-6c-0.7,1.7-1.8,3.2-3.2,4.6l-2.6,2.6c0.6,1.3,1.4,2.6,2.3,3.7l3.3-3.3
			C47.8,35.4,48.3,34.8,48.8,34.2z"/>
		<g>
			<path class="st13" d="M22.5,11.1c3-3,6.9-4.5,10.9-4.5c2.1,0,4.2,0.4,6.2,1.3c-0.2-1.7-0.8-3.3-1.3-5C31.7,1.3,24.6,3,19.5,8.1
				l-3.1,3.1c1.1,0.9,2.3,1.7,3.6,2.5L22.5,11.1z"/>
		</g>
		<g>
			<linearGradient id="SVGID_9_" gradientUnits="userSpaceOnUse" x1="12.8928" y1="21.8707" x2="19.9259" y2="12.1637">
				<stop  offset="0" style="stop-color:#004C91;stop-opacity:0"/>
				<stop  offset="0.1647" style="stop-color:#0069AB;stop-opacity:0.1647"/>
				<stop  offset="0.4064" style="stop-color:#018CCB;stop-opacity:0.4064"/>
				<stop  offset="0.6334" style="stop-color:#01A6E3;stop-opacity:0.6334"/>
				<stop  offset="0.8378" style="stop-color:#01B6F1;stop-opacity:0.8378"/>
				<stop  offset="1" style="stop-color:#01BBF6"/>
			</linearGradient>
			<path class="st14" d="M12.3,21.3l10.2-10.2C24.6,9,27.2,7.6,29.9,7c-0.2-0.5-0.3-0.9-0.6-1.4c-0.5-0.8-1.1-1.7-1.8-2.4
				c-2.9,0.9-5.7,2.5-8,4.9L9.4,18.2C10.2,19.4,11.1,20.5,12.3,21.3z"/>
		</g>
	</g>
</g>
</svg>
