<?xml version="1.0" encoding="utf-8"?>
<!-- Generator: Adobe Illustrator 21.0.0, SVG Export Plug-In . SVG Version: 6.00 Build 0)  -->
<svg version="1.1" id="Layer_1" xmlns="http://www.w3.org/2000/svg" xmlns:xlink="http://www.w3.org/1999/xlink" x="0px" y="0px"
	 viewBox="0 0 150 100" style="enable-background:new 0 0 150 100;" xml:space="preserve">
<style type="text/css">
	.st0{fill:#0069AB;}
	.st1{font-family:'Lato-Black';}
	.st2{font-size:13.0841px;}
	.st3{letter-spacing:2;}
	.st4{font-family:'Lato-Bold';}
	.st5{font-size:4.0259px;}
	.st6{letter-spacing:1;}
	.st7{fill:#009AD7;}
	.st8{fill:url(#SVGID_1_);}
	.st9{fill:url(#SVGID_2_);}
	.st10{fill:url(#SVGID_3_);}
	.st11{fill:url(#SVGID_4_);}
	.st12{fill:url(#SVGID_5_);}
	.st13{fill:url(#SVGID_6_);}
	.st14{fill:url(#SVGID_7_);}
	.st15{fill:url(#SVGID_8_);}
	.st16{fill:#01BBF6;}
	.st17{fill:url(#SVGID_9_);}
</style>
<g>
	<g>
		<g>
			<text transform="matrix(1 0 0 1 69.8767 36.9723)" class="st0 st1 st2 st3">SWISS</text>
		</g>
		<g>
			<text transform="matrix(1 0 0 1 23.1851 81.9691)" class="st0 st4 st5 st6">EDUCATION FOR YOUR FUTURE</text>
		</g>
		<g>
			<text transform="matrix(1 0 0 1 69.8767 52.9293)" class="st7 st1 st2 st3">STUDY</text>
		</g>
		<g>
			<text transform="matrix(1 0 0 1 69.4685 68.5137)" class="st0 st1 st2 st3">PORTAL</text>
		</g>
	</g>
	<g>
		<g>
			<g>
				
					<linearGradient id="SVGID_1_" gradientUnits="userSpaceOnUse" x1="-91.2022" y1="209.759" x2="-51.8403" y2="209.759" gradientTransform="matrix(0.7071 0.7071 -0.7071 0.7071 232.755 -55.1993)">
					<stop  offset="0" style="stop-color:#004C91"/>
					<stop  offset="0.207" style="stop-color:#0073B4"/>
					<stop  offset="0.4363" style="stop-color:#0096D4"/>
					<stop  offset="0.6519" style="stop-color:#00B0EC"/>
					<stop  offset="0.846" style="stop-color:#00C0FA"/>
					<stop  offset="1" style="stop-color:#00C5FF"/>
				</linearGradient>
				<path class="st8" d="M27.6,68.5c-5,0-10.1-1.9-13.9-5.8C6,55.1,6,42.6,13.7,34.9l12.6-12.6c7.7-7.7,20.2-7.7,27.8,0
					c7.7,7.7,7.7,20.2,0,27.8L41.5,62.8C37.6,66.6,32.6,68.5,27.6,68.5z M40.2,20.9c-3.9,0-7.9,1.5-10.9,4.5L16.7,37.9
					c-6,6-6,15.8,0,21.8c2.9,2.9,6.8,4.5,10.9,4.5c4.1,0,8-1.6,10.9-4.5L51,47.1c6-6,6-15.8,0-21.8C48,22.4,44.1,20.9,40.2,20.9z"/>
			</g>
			<g>
				<linearGradient id="SVGID_2_" gradientUnits="userSpaceOnUse" x1="7.8968" y1="42.5493" x2="59.8271" y2="42.5493">
					<stop  offset="0" style="stop-color:#004C91"/>
					<stop  offset="0.207" style="stop-color:#0073B4"/>
					<stop  offset="0.4363" style="stop-color:#0096D4"/>
					<stop  offset="0.6519" style="stop-color:#00B0EC"/>
					<stop  offset="0.846" style="stop-color:#00C0FA"/>
					<stop  offset="1" style="stop-color:#00C5FF"/>
				</linearGradient>
				<path class="st9" d="M54.1,22.3c-6.2-6.2-15.6-7.4-23-3.6c1.4,0.8,2.7,1.8,3.8,3c1.7-0.6,3.5-0.9,5.3-0.9
					c3.9,0,7.9,1.5,10.9,4.5c6,6,6,15.8,0,21.8L38.5,59.7c-2.9,2.9-6.8,4.5-10.9,4.5c-4.1,0-8-1.6-10.9-4.5
					c-3.8-3.8-5.2-9.2-4.2-14.1c-1.2-1.7-2-3.8-2.4-5.9c-3.9,7.4-2.7,16.9,3.5,23.1c3.8,3.8,8.9,5.8,13.9,5.8c5,0,10.1-1.9,13.9-5.8
					l12.6-12.6C61.7,42.5,61.7,30,54.1,22.3z"/>
			</g>
			<g>
				
					<linearGradient id="SVGID_3_" gradientUnits="userSpaceOnUse" x1="119.539" y1="507.9558" x2="158.901" y2="507.9558" gradientTransform="matrix(-0.7071 0.7071 -0.7071 -0.7071 491.4798 303.2817)">
					<stop  offset="0" style="stop-color:#004C91"/>
					<stop  offset="0.207" style="stop-color:#0073B4"/>
					<stop  offset="0.4363" style="stop-color:#0096D4"/>
					<stop  offset="0.6519" style="stop-color:#00B0EC"/>
					<stop  offset="0.846" style="stop-color:#00C0FA"/>
					<stop  offset="1" style="stop-color:#00C5FF"/>
				</linearGradient>
				<path class="st10" d="M40.2,68.5c-5.3,0-10.2-2-13.9-5.8L13.7,50.2C6,42.5,6,30,13.7,22.3c7.7-7.7,20.2-7.7,27.8,0l12.6,12.6
					c7.7,7.7,7.7,20.2,0,27.8C50.4,66.5,45.4,68.5,40.2,68.5z M27.6,20.8c-4.1,0-8,1.6-10.9,4.5c-6,6-6,15.8,0,21.8l12.6,12.6
					c2.9,2.9,6.8,4.5,10.9,4.5s8-1.6,10.9-4.5c6-6,6-15.8,0-21.8L38.5,25.4C35.6,22.5,31.7,20.8,27.6,20.8z"/>
			</g>
			<g>
				<linearGradient id="SVGID_4_" gradientUnits="userSpaceOnUse" x1="38.9372" y1="63.968" x2="48.3553" y2="71.5413">
					<stop  offset="0" style="stop-color:#004C91"/>
					<stop  offset="0.207" style="stop-color:#0073B4;stop-opacity:0.793"/>
					<stop  offset="0.4363" style="stop-color:#0096D4;stop-opacity:0.5637"/>
					<stop  offset="0.6519" style="stop-color:#00B0EC;stop-opacity:0.3481"/>
					<stop  offset="0.846" style="stop-color:#00C0FA;stop-opacity:0.154"/>
					<stop  offset="1" style="stop-color:#00C5FF;stop-opacity:0"/>
				</linearGradient>
				<path class="st11" d="M47.8,62.6c-0.1-0.1-0.2-0.2-0.3-0.3c-2.2,1.2-4.8,1.9-7.4,1.9c-1.4,0-2.7-0.2-4.1-0.5c-1.5,1-3,2-4.5,2.9
					c2.6,1.3,5.5,1.9,8.6,1.9c3.5,0,6.9-0.9,9.8-2.6C49.6,64.7,48.9,63.6,47.8,62.6z"/>
			</g>
			<g>
				<linearGradient id="SVGID_5_" gradientUnits="userSpaceOnUse" x1="34.5973" y1="65.6222" x2="22.7973" y2="56.4445">
					<stop  offset="0" style="stop-color:#004C91"/>
					<stop  offset="0.207" style="stop-color:#0073B4"/>
					<stop  offset="0.4363" style="stop-color:#0096D4"/>
					<stop  offset="0.6519" style="stop-color:#00B0EC"/>
					<stop  offset="0.846" style="stop-color:#00C0FA"/>
					<stop  offset="1" style="stop-color:#00C5FF"/>
				</linearGradient>
				<path class="st12" d="M35.6,63.6c-2.4-0.7-4.6-2-6.4-3.8l-9.4-9.4c-1.2,0.9-2.2,1.8-3.1,3l9.5,9.5c1.8,1.8,4,3.3,6.3,4.2
					C33.8,66,34.9,64.8,35.6,63.6z"/>
			</g>
		</g>
		<linearGradient id="SVGID_6_" gradientUnits="userSpaceOnUse" x1="47.3733" y1="40.0813" x2="46.4005" y2="15.5447">
			<stop  offset="0" style="stop-color:#004C91"/>
			<stop  offset="0.207" style="stop-color:#0073B4;stop-opacity:0.793"/>
			<stop  offset="0.4363" style="stop-color:#0096D4;stop-opacity:0.5637"/>
			<stop  offset="0.6519" style="stop-color:#00B0EC;stop-opacity:0.3481"/>
			<stop  offset="0.846" style="stop-color:#00C0FA;stop-opacity:0.154"/>
			<stop  offset="1" style="stop-color:#00C5FF;stop-opacity:0"/>
		</linearGradient>
		<path class="st13" d="M39.8,20.9c0.1,0,0.2,0,0.3,0c3.9,0,7.9,1.5,10.9,4.5c3.1,3.1,4.6,7.2,4.5,11.2c1.5,1.8,2.5,3.8,3.2,6
			c2.3-6.9,0.7-14.8-4.7-20.2c-5.5-5.5-13.3-7-20.2-4.7C36,18.3,38,19.4,39.8,20.9z"/>
		<linearGradient id="SVGID_7_" gradientUnits="userSpaceOnUse" x1="5.9884" y1="55.5287" x2="56.785" y2="55.5287">
			<stop  offset="0" style="stop-color:#004C91"/>
			<stop  offset="6.929814e-02" style="stop-color:#0061A4"/>
			<stop  offset="0.2275" style="stop-color:#008CCB"/>
			<stop  offset="0.3699" style="stop-color:#00ABE8"/>
			<stop  offset="0.4904" style="stop-color:#00BEF9"/>
			<stop  offset="0.5742" style="stop-color:#00C5FF"/>
			<stop  offset="1" style="stop-color:#006CAE"/>
		</linearGradient>
		<path class="st14" d="M54.2,42.5c-0.7,1.7-1.8,3.2-3.2,4.6L38.5,59.7c-2.9,2.9-6.8,4.5-10.9,4.5c-4.1,0-8-1.6-10.9-4.5
			c-3.1-3.1-4.6-7.2-4.5-11.2c-1.5-1.8-2.5-3.9-3.3-6c-2.3,6.9-0.7,14.8,4.7,20.2c3.8,3.8,8.9,5.8,13.9,5.8c5,0,10.1-1.9,13.9-5.8
			l12.6-12.6c0.5-0.5,1-1.1,1.5-1.7C55.5,46.5,55.1,44.4,54.2,42.5z"/>
		<linearGradient id="SVGID_8_" gradientUnits="userSpaceOnUse" x1="54.7186" y1="45.8696" x2="44.3206" y2="55.8572">
			<stop  offset="0" style="stop-color:#004C91"/>
			<stop  offset="0.207" style="stop-color:#0073B4;stop-opacity:0.793"/>
			<stop  offset="0.4363" style="stop-color:#0096D4;stop-opacity:0.5637"/>
			<stop  offset="0.6519" style="stop-color:#00B0EC;stop-opacity:0.3481"/>
			<stop  offset="0.846" style="stop-color:#00C0FA;stop-opacity:0.154"/>
			<stop  offset="1" style="stop-color:#00C5FF;stop-opacity:0"/>
		</linearGradient>
		<path class="st15" d="M55.5,48.5c0-2-0.5-4.1-1.3-6c-0.7,1.7-1.8,3.2-3.2,4.6l-2.6,2.6c0.6,1.3,1.4,2.6,2.3,3.7l3.3-3.3
			C54.6,49.6,55.1,49.1,55.5,48.5z"/>
		<g>
			<path class="st16" d="M29.3,25.4c3-3,6.9-4.5,10.9-4.5c2.1,0,4.2,0.4,6.2,1.3c-0.2-1.7-0.8-3.3-1.3-5c-6.5-1.6-13.7,0.1-18.7,5.2
				l-3.1,3.1c1.1,0.9,2.3,1.7,3.6,2.5L29.3,25.4z"/>
		</g>
		<g>
			<linearGradient id="SVGID_9_" gradientUnits="userSpaceOnUse" x1="19.6542" y1="36.1451" x2="26.6874" y2="26.4381">
				<stop  offset="0" style="stop-color:#004C91;stop-opacity:0"/>
				<stop  offset="0.1647" style="stop-color:#0069AB;stop-opacity:0.1647"/>
				<stop  offset="0.4064" style="stop-color:#018CCB;stop-opacity:0.4064"/>
				<stop  offset="0.6334" style="stop-color:#01A6E3;stop-opacity:0.6334"/>
				<stop  offset="0.8378" style="stop-color:#01B6F1;stop-opacity:0.8378"/>
				<stop  offset="1" style="stop-color:#01BBF6"/>
			</linearGradient>
			<path class="st17" d="M19,35.6l10.2-10.2c2.1-2.1,4.7-3.5,7.4-4.1c-0.2-0.5-0.3-0.9-0.6-1.4c-0.5-0.8-1.1-1.7-1.8-2.4
				c-2.9,0.9-5.7,2.5-8,4.9L16.1,32.4C16.9,33.7,17.9,34.8,19,35.6z"/>
		</g>
	</g>
</g>
</svg>
